HIERARCHY
ROOT Hips
{
  OFFSET 0.0000 0.0000 0.0000
  CHANNELS 6 Xposition Yposition Zposition Zrotation Xrotation Yrotation
  JOINT LeftHip
  {
    OFFSET 5.5000 0.0000 0.0000
    CHANNELS 3 Zrotation Xrotation Yrotation
    JOINT LeftKnee
    {
      OFFSET 0.0000 -17.5000 0.0000
      CHANNELS 3 Zrotation Xrotation Yrotation
      JOINT LeftAnkle
      {
        OFFSET 0.0000 -17.0000 0.0000
        CHANNELS 3 Zrotation Xrotation Yrotation
        End Site
        {
            OFFSET 0.0000 -4.7000 -2.0000
        }
      }
    }
  }
  JOINT RightHip
  {
    OFFSET -5.5000 -0.0000 0.0000
    CHANNELS 3 Zrotation Xrotation Yrotation
    JOINT RightKnee
    {
      OFFSET 0.0000 -17.5000 0.0000
      CHANNELS 3 Zrotation Xrotation Yrotation
      JOINT RightAnkle
      {
        OFFSET 0.0000 -17.0000 -0.0000
        CHANNELS 3 Zrotation Xrotation Yrotation
        End Site
        {
            OFFSET -0.0000 -4.7000 -2.0000
        }
      }
    }
  }
  JOINT Chest
  {
    OFFSET -0.0000 3.0000 -1.0000
    CHANNELS 3 Zrotation Xrotation Yrotation
    JOINT LeftCollar
    {
      OFFSET -0.0000 18.0000 1.0000
      CHANNELS 3 Zrotation Xrotation Yrotation
      JOINT LeftShoulder
      {
        OFFSET 6.5000 0.0000 0.0000
        CHANNELS 3 Zrotation Xrotation Yrotation
        JOINT LeftElbow
        {
          OFFSET 0.0000 -11.0000 -0.0000
          CHANNELS 3 Zrotation Xrotation Yrotation
          JOINT LeftWrist
          {
            OFFSET 0.0000 -10.5000 0.0000
            CHANNELS 3 Zrotation Xrotation Yrotation
            End Site
            {
                OFFSET -0.0000 -6.0000 0.0000
            }
          }
        }
      }
    }
    JOINT RightCollar
    {
      OFFSET -0.0000 18.0000 1.0000
      CHANNELS 3 Zrotation Xrotation Yrotation
      JOINT RightShoulder
      {
        OFFSET -6.5000 0.0000 0.0000
        CHANNELS 3 Zrotation Xrotation Yrotation
        JOINT RightElbow
        {
          OFFSET 0.0000 -11.0000 0.0000
          CHANNELS 3 Zrotation Xrotation Yrotation
          JOINT RightWrist
          {
            OFFSET 0.0000 -10.5000 0.0000
            CHANNELS 3 Zrotation Xrotation Yrotation
            End Site
            {
                OFFSET 0.0000 -6.0000 -0.0000
            }
          }
        }
      }
    }
    JOINT Neck
    {
      OFFSET -0.0000 18.0000 1.0000
      CHANNELS 3 Zrotation Xrotation Yrotation
      JOINT Head
      {
        OFFSET 0.0000 3.0000 0.0000
        CHANNELS 3 Zrotation Xrotation Yrotation
        End Site
        {
            OFFSET 0.0000 7.0000 0.0000
        }
      }
    }
  }
}
MOTION
Frames:	20
Frame Time:	0.016667
-0.7747 39.9014 -3.6701 2.40 -5.25 8.24 7.24 -10.40 10.87 0.00 22.67 1.77 -5.02 7.66 -17.95 -3.24 -7.06 -9.01 0.00 20.91 -1.27 0.52 -3.94 0.86 2.45 26.12 11.07 0.00 0.00 0.00 36.53 -31.53 -54.41 -0.00 -14.30 -5.49 -33.17 -3.12 -19.90 0.00 0.00 0.00 10.10 -39.39 68.73 -0.02 -40.60 -1.02 10.70 -8.09 59.24 0.00 0.00 0.00 6.68 -12.35 -30.26 
-0.7778 39.8430 -3.6804 2.56 -5.82 8.31 7.30 -10.62 10.66 -0.00 24.34 2.04 -4.51 7.43 -18.04 -3.39 -6.86 -9.02 -0.00 21.69 -1.32 0.79 -4.26 0.53 2.58 27.10 11.74 0.00 0.00 0.00 38.47 -31.06 -57.39 -0.00 -15.02 -4.61 -31.55 -2.11 -26.11 0.00 0.00 0.00 12.01 -39.86 72.65 0.00 -43.90 -0.74 11.36 -6.52 57.48 0.00 0.00 0.00 6.90 -12.40 -31.15 
-0.9745 39.7968 -3.7020 2.86 -5.72 8.27 7.28 -10.91 10.34 -0.00 24.80 2.03 -4.32 8.01 -17.56 -3.42 -6.87 -8.99 -0.00 21.41 -1.18 0.93 -4.09 0.16 3.32 28.48 12.23 0.00 0.00 0.00 39.72 -30.41 -59.83 -0.00 -15.73 -3.75 -29.54 -1.86 -30.30 0.00 0.00 0.00 13.56 -40.84 75.52 0.02 -47.66 -0.84 12.25 -4.88 56.98 0.00 0.00 0.00 7.18 -12.07 -31.68 
-1.2115 39.7830 -3.7518 3.19 -5.31 8.17 7.20 -11.25 10.07 0.00 24.69 1.92 -4.18 8.96 -16.93 -3.43 -6.99 -8.95 -0.00 20.59 -0.98 1.00 -3.61 -0.14 4.16 29.80 12.53 0.00 0.00 0.00 40.49 -29.85 -61.89 -0.00 -16.51 -2.88 -27.85 -1.49 -33.39 0.00 0.00 0.00 15.20 -41.75 78.45 0.00 -51.13 -1.18 13.14 -3.26 56.45 0.00 0.00 0.00 7.31 -11.88 -32.06 
-1.3662 39.8346 -3.8628 3.49 -4.83 8.03 7.05 -11.63 10.01 0.00 24.39 1.87 -3.81 10.05 -16.51 -3.54 -7.14 -8.95 -0.00 19.52 -0.82 1.00 -2.90 -0.29 4.74 30.57 12.59 0.00 0.00 0.00 40.61 -29.70 -63.59 -0.00 -17.39 -2.06 -27.01 -0.26 -35.60 0.00 0.00 0.00 15.55 -42.56 79.87 0.00 -53.40 -1.65 14.25 -3.30 56.22 0.00 0.00 0.00 7.01 -12.42 -32.54 
-1.4810 39.9138 -4.0040 3.77 -4.28 7.87 6.87 -12.02 10.06 0.00 23.93 1.81 -3.35 11.11 -16.20 -3.69 -7.36 -8.94 0.00 18.37 -0.68 0.94 -2.12 -0.32 5.15 31.00 12.53 0.00 0.00 0.00 40.39 -29.64 -65.06 -0.00 -18.39 -1.31 -26.73 1.16 -37.13 0.00 0.00 0.00 15.38 -43.23 80.56 -0.00 -55.06 -2.22 15.32 -3.95 56.12 0.00 0.00 0.00 6.54 -13.09 -32.90 
-1.5651 39.9964 -4.1669 4.00 -3.73 7.70 6.69 -12.44 10.20 0.00 23.43 1.73 -2.85 11.94 -15.99 -3.84 -7.70 -8.90 -0.00 17.38 -0.55 0.82 -1.40 -0.21 5.35 31.14 12.51 0.00 0.00 0.00 40.15 -29.43 -66.40 -0.00 -19.66 -0.68 -27.06 2.37 -38.23 0.00 0.00 0.00 15.06 -43.62 80.87 0.00 -56.49 -2.82 16.14 -4.67 56.11 0.00 0.00 0.00 6.14 -13.50 -32.96 
-1.5949 40.0759 -4.3171 4.19 -3.26 7.55 6.49 -12.79 10.36 -0.00 23.03 1.65 -2.32 12.42 -15.88 -4.02 -8.07 -8.85 0.00 16.68 -0.45 0.70 -0.86 -0.05 5.39 31.03 12.45 0.00 0.00 0.00 39.76 -29.17 -67.59 0.00 -20.89 -0.13 -27.72 3.52 -38.99 0.00 0.00 0.00 14.43 -43.80 80.50 -0.00 -57.43 -3.46 16.87 -5.59 56.23 0.00 0.00 0.00 5.70 -13.73 -32.87 
-1.5445 40.1379 -4.4157 4.32 -2.99 7.45 6.24 -12.98 10.47 -0.00 22.88 1.56 -1.80 12.34 -15.86 -4.27 -8.38 -8.80 0.00 16.46 -0.42 0.72 -0.67 0.11 5.27 30.72 12.36 0.00 0.00 0.00 39.27 -28.86 -68.60 0.00 -21.80 0.39 -28.45 4.53 -39.67 0.00 0.00 0.00 13.56 -43.70 79.26 0.01 -57.90 -4.11 17.58 -6.61 56.50 0.00 0.00 0.00 5.17 -13.65 -32.75 
-1.4303 40.1827 -4.4687 4.38 -2.93 7.40 5.98 -13.01 10.55 0.00 22.99 1.50 -1.32 11.78 -15.88 -4.51 -8.63 -8.74 -0.00 16.71 -0.46 0.71 -0.76 0.25 5.02 30.24 12.15 0.00 0.00 0.00 38.48 -28.46 -69.60 0.00 -22.46 0.86 -29.15 5.65 -40.04 0.00 0.00 0.00 12.30 -43.37 77.26 -0.00 -57.47 -4.74 18.34 -7.87 56.98 0.00 0.00 0.00 4.62 -13.43 -32.53 
-1.2593 40.2075 -4.4586 4.35 -3.20 7.43 5.73 -12.83 10.62 -0.00 23.45 1.50 -0.91 10.71 -15.97 -4.71 -8.80 -8.62 -0.00 17.64 -0.59 0.48 -1.20 0.34 4.64 29.56 11.65 0.00 0.00 0.00 37.08 -27.90 -70.97 0.00 -22.82 1.24 -29.59 7.17 -39.80 0.00 0.00 0.00 10.35 -42.78 74.32 -0.02 -55.50 -5.29 19.38 -9.61 57.81 0.00 0.00 0.00 4.01 -13.24 -32.15 
-1.0336 40.2076 -4.4164 4.21 -3.66 7.46 5.50 -12.52 10.62 0.00 24.14 1.53 -0.63 9.31 -15.94 -4.84 -8.84 -8.51 0.00 18.81 -0.75 0.26 -1.79 0.42 4.18 28.85 11.10 0.00 0.00 0.00 35.51 -27.22 -72.08 0.00 -22.93 1.62 -29.89 8.94 -39.51 0.00 0.00 0.00 8.32 -41.85 71.17 0.00 -52.68 -5.70 20.38 -11.29 58.88 0.00 0.00 0.00 3.56 -13.01 -31.67 
-0.7293 40.1744 -4.3968 3.88 -4.28 7.41 5.32 -12.14 10.50 0.00 25.07 1.58 -0.48 7.69 -15.61 -4.88 -8.72 -8.45 -0.00 19.85 -0.87 0.24 -2.34 0.51 3.68 28.27 10.68 0.00 0.00 0.00 34.16 -26.50 -72.45 0.00 -22.81 2.10 -30.04 10.90 -39.69 0.00 0.00 0.00 6.81 -40.56 68.51 -0.01 -49.37 -5.97 20.99 -12.48 60.12 0.00 0.00 0.00 3.52 -12.64 -31.08 
-0.4312 40.1165 -4.3113 3.44 -4.93 7.28 5.20 -11.62 10.26 -0.00 25.99 1.62 -0.51 6.04 -15.06 -4.79 -8.41 -8.41 0.00 20.74 -0.97 0.27 -2.87 0.67 3.23 27.77 10.28 0.00 0.00 0.00 32.82 -25.80 -72.24 0.00 -22.55 2.63 -30.04 12.95 -40.16 0.00 0.00 0.00 5.30 -39.13 66.07 0.00 -45.85 -6.07 21.33 -13.37 61.25 0.00 0.00 0.00 3.67 -12.34 -30.48 
-0.2239 40.0309 -4.0569 2.91 -5.51 7.05 5.21 -10.86 9.84 -0.00 26.59 1.63 -0.82 4.57 -14.24 -4.49 -7.85 -8.40 0.00 21.36 -1.01 0.24 -3.35 0.99 2.97 27.40 9.86 0.00 0.00 0.00 31.40 -25.17 -71.13 0.00 -22.20 3.18 -29.84 15.04 -40.90 0.00 0.00 0.00 3.37 -37.74 63.71 0.02 -42.42 -5.90 21.29 -14.14 61.98 0.00 0.00 0.00 3.93 -12.36 -29.95 
-0.0836 39.9440 -3.7343 2.35 -5.99 6.74 5.27 -10.04 9.36 -0.00 27.01 1.62 -1.26 3.25 -13.29 -4.08 -7.15 -8.42 0.00 21.67 -1.02 0.20 -3.73 1.35 2.84 27.07 9.42 0.00 0.00 0.00 29.98 -24.57 -70.01 -0.00 -21.90 3.78 -29.51 17.06 -41.97 0.00 0.00 0.00 1.15 -36.36 61.32 -0.00 -39.37 -5.69 21.10 -14.66 62.44 0.00 0.00 0.00 4.24 -12.54 -29.48 
-0.0274 39.8837 -3.4069 1.87 -6.34 6.38 5.31 -9.34 8.98 -0.00 27.36 1.66 -1.70 2.12 -12.45 -3.63 -6.36 -8.49 0.00 21.58 -1.01 0.16 -3.95 1.68 2.81 26.76 9.01 0.00 0.00 0.00 28.59 -23.90 -67.64 0.01 -21.77 4.36 -29.03 18.82 -43.54 0.00 0.00 0.00 -1.22 -34.94 58.89 0.00 -37.22 -5.57 20.89 -14.70 62.56 0.00 0.00 0.00 4.51 -12.87 -29.11 
-0.0186 39.8427 -3.0818 1.39 -6.54 5.91 5.34 -8.59 8.44 0.00 27.40 1.61 -2.29 1.14 -11.33 -3.10 -5.52 -8.53 -0.00 21.08 -0.94 0.07 -4.03 1.99 2.88 26.31 8.49 0.00 0.00 0.00 27.18 -23.29 -65.26 -0.00 -21.91 5.17 -28.58 20.57 -45.20 0.00 0.00 0.00 -4.14 -33.59 55.94 -0.00 -35.57 -5.55 20.92 -14.61 62.64 0.00 0.00 0.00 4.70 -13.08 -28.69 
-0.0073 39.8263 -2.7819 0.82 -6.53 5.26 5.34 -7.58 7.35 0.00 26.83 1.25 -3.23 0.29 -9.37 -2.45 -4.67 -8.48 -0.00 20.04 -0.73 -0.09 -3.98 2.27 3.03 25.51 7.64 0.00 0.00 0.00 25.51 -22.35 -60.05 -0.01 -22.58 6.64 -28.39 22.86 -46.97 0.00 0.00 0.00 -8.41 -32.41 51.41 -0.01 -34.13 -5.76 21.73 -14.84 63.18 0.00 0.00 0.00 4.63 -12.70 -28.12 
-0.0507 39.8238 -2.5229 0.30 -6.41 4.50 5.39 -6.54 6.19 -0.00 25.99 0.88 -4.17 -0.42 -7.34 -1.77 -3.88 -8.32 -0.00 18.72 -0.45 -0.34 -3.79 2.55 3.20 24.47 6.72 0.00 0.00 0.00 23.76 -21.54 -54.84 0.00 -23.41 8.20 -28.45 24.82 -47.92 0.00 0.00 0.00 -12.51 -30.95 47.05 0.00 -32.96 -5.97 22.67 -14.87 63.55 0.00 0.00 0.00 4.54 -12.31 -27.35 
